PathFileType	4	(X/Y/Z)	S1_rest_fast_left.trc
DataRate	CameraRate	NumFrames	NumMarkers	Units	OrigDataRate	OrigDataStartFrame	OrigNumFrames
250.00	250.00	12	18	mm	250.00	20828	23803
Frame#	Time	c7	r_should	l_should	clavicle	r_upa	r_elb_l	r_elb_m	r_low	r_wri_l	r_wri_m	r_met	l_upa	l_elb_l	l_elb_m	l_low	l_wri_l	l_wri_m	l_met
	X1	Y1	Z1	X2	Y2	Z2	X3	Y3	Z3	X4	Y4	Z4	X5	Y5	Z5	X6	Y6	Z6	X7	Y7	Z7	X8	Y8	Z8	X9	Y9	Z9	X10	Y10	Z10	X11	Y11	Z11	X12	Y12	Z12	X13	Y13	Z13	X14	Y14	Z14	X15	Y15	Z15	X16	Y16	Z16	X17	Y17	Z17	X18	Y18	Z18
20828	83.30800	394.96674	1418.86560	64.46426	474.38635	1354.44189	243.79662	425.62839	1373.68604	-121.32818	537.75659	1306.25391	42.96140	454.26303	1158.44983	315.34723	471.45343	1060.88806	332.92526	405.64737	1031.05371	262.80652	457.46045	928.48590	351.22388	557.90308	864.40039	322.55582	494.81754	832.77240	337.22223	609.22437	788.40363	341.77097	452.45410	1156.72400	-169.69086	470.79001	1097.52246	-182.97520	455.93176	1047.09753	-96.64438	577.64166	1011.82721	-159.51053	674.11957	1060.03979	-175.04813	nan	nan	nan	732.86786	1026.55994	-201.06941
20829	83.31200	394.76440	1418.84253	64.56958	474.50964	1354.46973	243.73605	425.01294	1373.80530	-121.16689	537.57861	1306.31665	42.82001	454.35022	1158.48755	315.37549	471.51614	1060.93640	332.95764	405.65823	1031.11206	262.89774	457.45541	928.54236	351.32077	557.85303	864.39246	322.62299	494.75705	832.80560	337.34372	609.14172	788.37488	341.85214	452.45456	1157.00366	-169.70909	470.97607	1098.02515	-183.00743	456.32111	1047.39124	-96.66827	578.36505	1013.22009	-159.50090	675.72510	1062.51624	-172.92113	nan	nan	nan	733.40540	1029.47192	-201.00815
20830	83.31600	394.55728	1418.82117	64.66999	474.63156	1354.50024	243.68527	424.42230	1373.91113	-121.00520	537.41193	1306.38354	42.69038	454.45966	1158.54114	315.38995	471.59241	1060.99646	333.00769	405.67310	1031.16370	262.98608	457.45660	928.58569	351.41235	557.81116	864.38092	322.69626	494.70425	832.83435	337.46225	609.06226	788.34381	341.93259	452.45987	1157.27539	-169.70975	471.14349	1098.48767	-183.00888	456.75726	1047.67371	-96.68997	579.09979	1014.61993	-159.51392	676.32812	1064.68323	-172.23372	nan	nan	nan	733.94971	1032.36914	-200.91774
20831	83.32000	394.35388	1418.79651	64.76519	474.74960	1354.52661	243.63907	423.84781	1374.02356	-120.84999	537.25732	1306.45020	42.58422	454.58670	1158.59497	315.41312	471.67816	1061.05286	333.04633	405.69568	1031.21594	263.08209	457.46115	928.61053	351.49408	557.77838	864.36194	322.76160	494.66229	832.85950	337.57654	608.98712	788.30029	342.01544	452.46472	1157.53674	-169.71075	471.29349	1098.93225	-183.00247	457.20544	1047.94409	-96.72030	579.82635	1016.00470	-159.52513	676.67688	1066.86072	-171.92157	nan	nan	nan	734.45648	1035.29016	-200.85138
20832	83.32400	394.15015	1418.76917	64.85433	474.86551	1354.55457	243.59059	423.28076	1374.12830	-120.68957	537.10101	1306.51758	42.47244	454.72778	1158.64197	315.43958	471.77267	1061.09875	333.08578	405.72601	1031.27759	263.17477	457.48352	928.65656	351.59161	557.75226	864.33673	322.83139	494.62643	832.88037	337.69321	608.91321	788.24628	342.09601	452.47623	1157.77222	-169.70297	471.44373	1099.40405	-183.00735	457.67703	1048.19922	-96.74439	580.57092	1017.39441	-159.53552	676.94482	1069.03784	-171.73044	nan	nan	nan	734.79657	1037.23035	-200.82080
20833	83.32800	393.95657	1418.73865	64.94298	474.96783	1354.58508	243.53902	422.71927	1374.22925	-120.54079	536.93695	1306.58850	42.34608	454.86832	1158.67871	315.45627	471.87842	1061.14050	333.12726	405.77698	1031.33081	263.28439	457.52127	928.70471	351.69223	557.74109	864.30383	322.89642	494.59778	832.89789	337.81384	608.84869	788.18939	342.16028	452.49423	1157.99829	-169.67917	471.61844	1099.89734	-182.98468	458.15833	1048.42346	-96.73511	581.32220	1018.76666	-159.51884	676.57788	1071.39465	-172.57268	nan	nan	nan	nan	nan	nan
20834	83.33200	393.76010	1418.70605	65.02290	475.06177	1354.61304	243.48698	422.16885	1374.32239	-120.40504	536.77472	1306.65417	42.22223	455.02823	1158.71521	315.47360	471.99707	1061.18481	333.17029	405.85001	1031.36743	263.37961	457.57007	928.75281	351.78989	557.74786	864.26727	322.95966	494.57291	832.90753	337.93137	608.79059	788.11591	342.21182	452.52390	1158.21594	-169.64566	471.81686	1100.36829	-182.92543	458.66309	1048.64600	-96.69103	582.07312	1020.14972	-159.50343	675.39722	1073.93298	-174.70564	nan	nan	nan	nan	nan	nan
20835	83.33600	393.56177	1418.67310	65.09652	475.14230	1354.63416	243.44006	421.60385	1374.41040	-120.25835	536.61346	1306.72119	42.09828	455.19632	1158.75317	315.49435	472.13065	1061.21814	333.20804	405.92926	1031.40430	263.47748	457.62903	928.79382	351.88535	557.77167	864.22858	323.02188	494.55692	832.91461	338.05234	608.74304	788.02283	342.25101	452.57193	1158.41956	-169.60875	472.01443	1100.82361	-182.86183	459.16330	1048.87964	-96.63789	582.79382	1021.50336	-159.47446	675.24933	1076.33618	-175.17287	nan	nan	nan	nan	nan	nan
20836	83.34000	393.36771	1418.64514	65.17172	475.21539	1354.65881	243.39825	421.02087	1374.49084	-120.09121	536.45898	1306.78320	41.97818	455.36273	1158.79102	315.51282	472.27899	1061.25989	333.24951	406.01883	1031.43713	263.56976	457.69781	928.83148	351.98315	557.80957	864.18134	323.08362	494.54575	832.91528	338.17542	608.69763	787.92310	342.28162	452.63141	1158.61914	-169.56454	472.19745	1101.26001	-182.81644	459.66135	1049.12219	-96.58318	583.52203	1022.86053	-159.44119	675.34045	1078.69556	-175.22275	nan	nan	nan	nan	nan	nan
20837	83.34400	393.17517	1418.62170	65.24963	475.28702	1354.68420	243.35201	420.43823	1374.55896	-119.92964	536.31104	1306.83691	41.86872	455.52957	1158.82410	315.51694	472.43784	1061.29407	333.28998	406.11267	1031.47107	263.66016	457.77029	928.86719	352.08456	557.85352	864.13275	323.14865	494.54266	832.91315	338.29599	608.66119	787.82452	342.30322	452.70117	1158.81299	-169.51112	472.37115	1101.67310	-182.77841	460.20312	1049.37524	-96.51987	584.75873	1023.33130	-159.58604	675.49884	1081.03894	-175.15619	nan	nan	nan	nan	nan	nan
20838	83.34800	392.98785	1418.60950	65.32292	475.35388	1354.70837	243.31084	419.87219	1374.62695	-119.78671	536.16217	1306.89355	41.75492	455.70142	1158.85657	315.52502	472.60498	1061.32385	333.31744	406.21030	1031.49988	263.74478	457.85794	928.90631	352.18430	557.91614	864.08569	323.21292	494.54230	832.91187	338.41788	608.62946	787.73236	342.32874	452.78302	1159.01050	-169.44659	472.55923	1102.07178	-182.71191	460.74106	1049.63757	-96.44591	586.74872	1022.70648	-159.91039	675.65656	1083.39673	-175.07141	nan	nan	nan	651.87378	1083.95190	-243.41148
20839	83.35200	392.79214	1418.59607	65.39692	475.41602	1354.73962	243.26556	419.30554	1374.69226	-119.64782	536.11407	1306.77332	41.89301	455.87814	1158.89575	315.53931	472.78619	1061.35303	333.34433	406.32394	1031.53528	263.82874	457.95142	928.94598	352.27774	558.00568	864.03784	323.27267	494.54993	832.91040	338.54095	608.59662	787.63007	342.34207	452.86221	1159.20898	-169.37238	472.77481	1102.50000	-182.61046	461.24481	1049.90649	-96.36754	587.99908	1023.46240	-159.75536	675.80023	1085.73145	-174.97870	nan	nan	nan	652.66760	1085.57532	-243.37396
